<svg width="240" height="180" viewBox="0 0 240 180" fill="none" xmlns="http://www.w3.org/2000/svg">
  <defs>
    <linearGradient id="cardGlow" x1="36" y1="28" x2="196" y2="142" gradientUnits="userSpaceOnUse">
      <stop stop-color="#FFF4ED"/>
      <stop offset="1" stop-color="#FDE3D2"/>
    </linearGradient>
    <linearGradient id="accentStroke" x1="76" y1="62" x2="172" y2="128" gradientUnits="userSpaceOnUse">
      <stop stop-color="#F37B4A"/>
      <stop offset="1" stop-color="#D74F36"/>
    </linearGradient>
  </defs>
  <rect x="40" y="26" width="160" height="120" rx="28" fill="url(#cardGlow)"/>
  <rect x="52" y="40" width="136" height="92" rx="20" fill="#FFFDFB" stroke="#F2D4C2" stroke-width="2"/>
  <rect x="70" y="58" width="56" height="10" rx="5" fill="#F7D8C8"/>
  <rect x="70" y="76" width="88" height="8" rx="4" fill="#F9E5D9"/>
  <rect x="70" y="92" width="74" height="8" rx="4" fill="#F9E5D9"/>
  <circle cx="160" cy="101" r="22" fill="#FFF4ED" stroke="url(#accentStroke)" stroke-width="4"/>
  <path d="M160 89V101L167 107" stroke="url(#accentStroke)" stroke-width="4" stroke-linecap="round" stroke-linejoin="round"/>
  <path d="M64 124C73.3333 116.667 82.6667 116.667 92 124" stroke="#F0C7B5" stroke-width="4" stroke-linecap="round"/>
  <circle cx="67" cy="124" r="4" fill="#EAA27F"/>
  <circle cx="89" cy="124" r="4" fill="#EAA27F"/>
  <path d="M43 62C32 72 30 86 36 99" stroke="#F8CFBA" stroke-width="3" stroke-linecap="round"/>
  <path d="M200 95C208 88 211 77 208 66" stroke="#F8CFBA" stroke-width="3" stroke-linecap="round"/>
</svg>
